<svg width="44" height="44" viewBox="0 0 44 44" fill="none" xmlns="http://www.w3.org/2000/svg">
<g id="Frame 8">
<circle id="Ellipse 1" cx="22" cy="22" r="16.7778" stroke="#3382FF" stroke-width="2"/>
<path id="Vector" d="M15.3334 13.8232L15.4922 27.0019C15.5006 27.6939 16.0931 28.2484 16.8157 28.2404C17.1253 28.237 17.4236 28.1285 17.6576 27.9343L21.0056 25.155L24.4195 30.8177C24.7809 31.417 25.5811 31.6224 26.2069 31.2764L27.6413 30.4832C28.2672 30.1372 28.4816 29.3709 28.1202 28.7716L24.7064 23.1088L28.8967 21.7208C29.5796 21.4946 29.9417 20.781 29.7055 20.127C29.6044 19.847 29.4031 19.6105 29.1372 19.4592L17.3099 12.7315C16.6887 12.378 15.8858 12.5739 15.5168 13.1689C15.3941 13.3667 15.3306 13.5931 15.3334 13.8232Z" fill="#E7E7E7"/>
</g>
</svg>
