<svg width="24" height="24" viewBox="0 0 24 24" fill="none" xmlns="http://www.w3.org/2000/svg">
<g id="copy-left">
<path id="Icon" d="M18 9.59999H20.4C21.0627 9.59999 21.6 10.1373 21.6 10.8L21.6 19.6C21.6 20.7046 20.7046 21.6 19.6 21.6L10.8 21.6C10.1373 21.6 9.6 21.0627 9.6 20.4V18M12 2.39999L4.8 2.39999C3.47452 2.39999 2.4 3.47451 2.4 4.79999L2.4 12C2.4 13.3255 3.47452 14.4 4.8 14.4L12 14.4C13.3255 14.4 14.4 13.3255 14.4 12L14.4 4.79999C14.4 3.47451 13.3255 2.39999 12 2.39999Z" stroke="#C9CDD4" stroke-width="2" stroke-linecap="round"/>
</g>
</svg>
