<svg width="160" height="27" viewBox="0 0 160 27" fill="none" xmlns="http://www.w3.org/2000/svg">
<g id="Frame" clip-path="url(#clip0_367_262)">
<g id="Group">
<path id="Vector" d="M50.0772 2.49112H55.485L58.886 19.9737H59.0905L62.696 4.77456H68.6818L72.0828 19.9737H72.2864L75.7558 2.49112H81.0952L75.6874 26.1415H69.225L65.5857 11.1473H65.3812L61.6744 26.1415H55.212L50.0772 2.49112Z" fill="white"/>
<path id="Vector_2" d="M99.529 15.4754C99.529 15.9978 99.5117 16.4927 99.4779 16.9575C99.4441 17.4231 99.4039 17.7808 99.3592 18.0306L87.5237 18.7807C87.6141 20.099 88.056 21.0642 88.8504 21.6771C89.6438 22.291 90.8572 22.5975 92.4896 22.5975C93.0557 22.5975 93.6346 22.5581 94.2244 22.4785C94.8142 22.3989 95.3812 22.3029 95.9244 22.1885C96.4686 22.0751 96.9726 21.9388 97.4382 21.7796C97.9029 21.6204 98.2827 21.4612 98.5776 21.302V25.1874C98.3056 25.3465 97.9367 25.5057 97.472 25.6649C97.0073 25.8241 96.4686 25.9604 95.8569 26.0738C95.2442 26.1873 94.5695 26.2843 93.8336 26.3638C93.0968 26.4434 92.3308 26.4828 91.5383 26.4828C90.1322 26.4828 88.8741 26.3346 87.763 26.04C86.6518 25.7454 85.716 25.234 84.9573 24.5067C84.1976 23.7803 83.6142 22.8024 83.2061 21.5756C82.798 20.3488 82.5944 18.8036 82.5944 16.941C82.5944 15.0784 82.798 13.5332 83.2061 12.3064C83.6142 11.0796 84.204 10.1026 84.9746 9.37528C85.7452 8.6489 86.6975 8.13751 87.8314 7.8411C88.9645 7.54652 90.2464 7.39832 91.6743 7.39832C93.2611 7.39832 94.5649 7.59775 95.5857 7.99479C96.6065 8.39275 97.4108 8.94897 98.0006 9.66437C98.5904 10.3798 98.9922 11.2315 99.2076 12.2204C99.4213 13.2094 99.529 14.2944 99.529 15.4754ZM95.0397 14.76C95.0397 14.2605 94.9995 13.7885 94.921 13.3457C94.8416 12.9029 94.6827 12.5168 94.4453 12.1866C94.207 11.8572 93.8674 11.5965 93.4246 11.4026C92.9827 11.2095 92.3983 11.1126 91.6734 11.1126C90.9019 11.1126 90.2619 11.1976 89.7515 11.3687C89.2411 11.5389 88.8275 11.795 88.5098 12.1354C88.1921 12.4766 87.9538 12.9139 87.7958 13.4472C87.637 13.9815 87.5466 14.6118 87.5237 15.3382L95.0397 14.76Z" fill="white"/>
<path id="Vector_3" d="M105.855 5.18348C105.311 5.18348 104.857 5.15512 104.495 5.0984C104.132 5.04168 103.848 4.92275 103.645 4.7407C103.44 4.55956 103.299 4.29792 103.219 3.9576C103.14 3.61636 103.101 3.15162 103.101 2.56064C103.101 1.99344 103.14 1.53785 103.219 1.19753C103.299 0.857208 103.44 0.595564 103.645 0.414425C103.849 0.232373 104.132 0.119847 104.495 0.0731906C104.857 0.0274486 105.311 0.00457764 105.855 0.00457764C106.421 0.00457764 106.881 0.0274486 107.233 0.0731906C107.585 0.118933 107.862 0.232373 108.067 0.414425C108.271 0.596478 108.412 0.857208 108.492 1.19753C108.572 1.53876 108.611 1.99344 108.611 2.56064C108.611 3.15162 108.571 3.61728 108.492 3.9576C108.413 4.29792 108.271 4.55956 108.067 4.7407C107.862 4.92275 107.585 5.0426 107.233 5.0984C106.881 5.15512 106.421 5.18348 105.855 5.18348ZM103.373 7.73954H108.304V26.1424H103.373V7.73954Z" fill="white"/>
<path id="Vector_4" d="M111.297 7.73953H116.535L119.425 21.0303H119.63L122.861 7.73953H128.439L131.67 21.0303H131.874L134.764 7.73953H139.934L134.9 26.1424H128.71L125.683 13.5671H125.48L122.453 26.1424H116.263L111.297 7.73953Z" fill="white"/>
<path id="Vector_5" d="M151.021 26.4828C149.593 26.4828 148.318 26.3346 147.195 26.04C146.073 25.7454 145.131 25.234 144.372 24.5067C143.612 23.7803 143.029 22.8024 142.621 21.5756C142.213 20.3488 142.009 18.8036 142.009 16.941C142.009 15.0784 142.213 13.5332 142.621 12.3064C143.029 11.0796 143.612 10.1026 144.372 9.37528C145.131 8.6489 146.073 8.13751 147.195 7.8411C148.317 7.54652 149.592 7.39832 151.021 7.39832C152.45 7.39832 153.719 7.54652 154.83 7.8411C155.941 8.13659 156.877 8.64799 157.636 9.37528C158.396 10.1026 158.979 11.0787 159.388 12.3064C159.796 13.5332 160.001 15.0784 160.001 16.941C160.001 18.8036 159.796 20.3488 159.388 21.5756C158.98 22.8024 158.396 23.7794 157.636 24.5067C156.877 25.234 155.941 25.7454 154.83 26.04C153.719 26.3346 152.45 26.4828 151.021 26.4828ZM151.021 22.7338C151.77 22.7338 152.399 22.6432 152.909 22.4611C153.419 22.28 153.827 21.9671 154.133 21.5243C154.439 21.0816 154.654 20.4851 154.779 19.7358C154.904 18.9857 154.967 18.0544 154.967 16.941C154.967 15.8286 154.898 14.8963 154.762 14.1471C154.626 13.3969 154.405 12.7959 154.099 12.3403C153.793 11.8856 153.391 11.5627 152.892 11.3696C152.393 11.1766 151.77 11.0796 151.021 11.0796C150.274 11.0796 149.644 11.1766 149.134 11.3696C148.624 11.5627 148.216 11.8865 147.91 12.3403C147.604 12.795 147.388 13.3969 147.263 14.1471C147.138 14.8963 147.076 15.8286 147.076 16.941C147.076 18.0544 147.145 18.9857 147.281 19.7358C147.417 20.4851 147.638 21.0816 147.944 21.5243C148.249 21.9671 148.652 22.28 149.151 22.4611C149.649 22.6432 150.274 22.7338 151.021 22.7338Z" fill="white"/>
</g>
<path id="Vector_6" d="M13.3264 5.46433H9.09457L11.0183 9.08069C11.0594 9.17218 11.1069 9.26 11.1589 9.34417L11.6154 10.2032L14.6275 15.8651L15.9039 18.2638L15.9614 18.3718C16.112 18.6517 16.2892 18.9143 16.4891 19.1586C17.3811 20.2518 18.7214 20.9617 20.2297 21.0056L18.8748 23.8489L18.0339 25.6118L17.7765 26.1516C14.9315 25.4234 12.5522 23.5278 11.1753 21.0056L11.042 20.755L2.90705 5.46433L0 0H13.3264C16.8534 0 19.8454 2.29533 20.8944 5.47714C21.1555 6.26573 21.2961 7.10921 21.2961 7.98563C21.2961 9.03129 21.0953 10.0303 20.731 10.9451C20.3548 11.8902 19.8034 12.7455 19.1159 13.4719L18.0668 11.4986L15.4985 6.67101C15.4957 6.67192 15.4939 6.67284 15.4912 6.67466C15.0429 5.94828 14.2413 5.46433 13.3264 5.46433Z" fill="#50D5FF"/>
<path id="Vector_7" d="M44.5991 4.99137C44.5991 5.71775 44.443 6.40662 44.1627 7.0278L44.1609 7.03054L44.0759 7.21077L36.3071 23.5031L36.161 23.8105C35.3375 25.3959 33.6831 26.4782 31.7767 26.4782H28.572L28.9847 25.6118L33.1928 16.7864L36.8695 9.07521L41.0776 0.249756C43.1145 0.859953 44.5991 2.75184 44.5991 4.99137Z" fill="#3382FF"/>
<path id="Vector_8" d="M33.6465 4.99137C33.6465 5.75983 33.4722 6.48621 33.1608 7.13483L33.159 7.13758L30.4117 12.9001L25.3499 23.5159L25.3481 23.5205L25.2239 23.7822L25.2166 23.7959C25.1208 23.9825 25.013 24.1618 24.8943 24.3338V24.3347C24.1776 25.3776 23.0711 26.1306 21.7855 26.3849C21.7828 26.3849 21.78 26.3858 21.7773 26.3858C21.4084 26.4343 21.0323 26.4654 20.6516 26.4745C20.6506 26.4754 20.6488 26.4754 20.6479 26.4745H20.647C20.5584 26.4773 20.4708 26.4782 20.3813 26.4782C20.3448 26.4782 20.3083 26.4782 20.2726 26.4764C19.4117 26.469 18.5753 26.3565 17.7765 26.1516L18.0339 25.6118L18.8748 23.8489L20.2297 21.0056L21.5984 18.1367L22.242 16.7864L24.195 12.6897L25.9178 9.07612L26.6473 7.54651L30.1259 0.250671C32.1629 0.860869 33.6465 2.75276 33.6465 4.99137Z" fill="#3382FF"/>
</g>
<defs>
<clipPath id="clip0_367_262">
<rect width="160" height="26.4828" fill="white"/>
</clipPath>
</defs>
</svg>
