<svg width="20" height="20" viewBox="0 0 20 20" fill="none" xmlns="http://www.w3.org/2000/svg">
<g id="Frame 79">
<path id="Union" fill-rule="evenodd" clip-rule="evenodd" d="M12.4999 8.22311C12.7451 8.08122 13.0298 8 13.3334 8C14.2539 8 15.0001 8.74619 15.0001 9.66667C15.0001 10.5871 14.2539 11.3333 13.3334 11.3333C13.0297 11.3333 12.745 11.2521 12.4997 11.1102L12.5001 11.11C12.4187 11.0504 12.3396 10.9955 12.263 10.9442C11.8985 10.6385 11.6668 10.1796 11.6668 9.66667C11.6668 9.04994 12.0017 8.51146 12.4997 8.22322H12.5001L12.4999 8.22311ZM14.1668 12.895C15.6045 12.5249 16.6668 11.2199 16.6668 9.66667C16.6668 8.11347 15.6045 6.80838 14.1668 6.43835V3H12.5001V6.43835C11.9043 6.59169 11.373 6.90561 10.955 7.33121L5.00005 3.89309C3.88894 3.25159 2.50005 4.05347 2.50005 5.33647V13.9967C2.50005 15.2797 3.88894 16.0816 5.00005 15.4401L10.955 12.002C11.3729 12.4277 11.9043 12.7416 12.5001 12.895V16.3333H14.1668V12.895Z" fill="white"/>
</g>
</svg>
