<svg width="20" height="20" viewBox="0 0 20 20" fill="none" xmlns="http://www.w3.org/2000/svg">
<g id="Frame 76">
<path id="Union" fill-rule="evenodd" clip-rule="evenodd" d="M8.33352 8.22311C8.08832 8.08122 7.80362 8 7.49994 8C6.57947 8 5.83328 8.74619 5.83328 9.66667C5.83328 10.5871 6.57947 11.3333 7.49994 11.3333C7.80367 11.3333 8.08841 11.2521 8.33364 11.1102L8.33333 11.11C8.41473 11.0504 8.49376 10.9955 8.57034 10.9442C8.93486 10.6385 9.16661 10.1796 9.16661 9.66667C9.16661 9.04994 8.83164 8.51146 8.33371 8.22322H8.33333L8.33352 8.22311ZM6.66661 12.895C5.22892 12.5249 4.16661 11.2199 4.16661 9.66667C4.16661 8.11347 5.22892 6.80838 6.66661 6.43835V3H8.33328V6.43835C8.92906 6.59169 9.46037 6.90561 9.87834 7.33121L15.8333 3.89309C16.9444 3.25159 18.3333 4.05347 18.3333 5.33647V13.9967C18.3333 15.2797 16.9444 16.0816 15.8333 15.4401L9.87842 12.002C9.46044 12.4277 8.9291 12.7416 8.33328 12.895V16.3333H6.66661V12.895Z" fill="white"/>
</g>
</svg>
