<svg width="44" height="44" viewBox="0 0 44 44" fill="none" xmlns="http://www.w3.org/2000/svg">
<g id="Frame 13">
<rect width="44" height="44" rx="8" fill="#3382FF"/>
<path id="Ellipse 4" d="M36.5378 14.1479C37.3542 16.7271 36.6681 19.6096 34.7177 22.2234C32.7684 24.8357 29.5987 27.1056 25.6515 28.3549C21.7042 29.6043 17.8057 29.5714 14.7084 28.5565C11.6092 27.5409 9.38961 25.578 8.57328 22.9987C7.75694 20.4195 8.44296 17.537 10.3934 14.9232C12.3427 12.311 15.5124 10.041 19.4596 8.7917C23.4069 7.54238 27.3054 7.57519 30.4027 8.59018C33.5019 9.60576 35.7215 11.5687 36.5378 14.1479Z" stroke="#50D5FF" stroke-width="2"/>
<path id="Ellipse 6" d="M19.8889 27.5556C19.8889 29.9085 17.5303 32.1111 14.2222 32.1111C10.9141 32.1111 8.55554 29.9085 8.55554 27.5556C8.55554 25.2026 10.9141 23 14.2222 23C17.5303 23 19.8889 25.2026 19.8889 27.5556Z" stroke="#50D5FF" stroke-width="2"/>
<path id="Vector 19" d="M9.77777 25.3333C11.19 26.9333 14.8618 30.4533 18.2511 31.7333C21.6405 33.0133 18.6042 36.8889 16.6624 38.6666" stroke="#50D5FF" stroke-width="2" stroke-linejoin="round"/>
</g>
</svg>
