<svg width="44" height="44" viewBox="0 0 44 44" fill="none" xmlns="http://www.w3.org/2000/svg">
<g id="Frame 11">
<rect width="44" height="44" rx="8" fill="#3382FF"/>
<path id="Rectangle 13" d="M14 17H22V31L14 27V17Z" fill="#D1D1D1"/>
<path id="Rectangle 14" d="M22 17H30V27L22 31V17Z" fill="#848484"/>
<path id="Polygon 2" d="M22 13L30 17L22 21L14 17L22 13Z" fill="#E7E7E7"/>
<path id="Ellipse 2" d="M37 22C37 13.7157 30.2843 7 22 7C16.4479 7 11.6003 10.0165 9.00671 14.5" stroke="#50D5FF" stroke-width="2" stroke-linejoin="round"/>
<path id="Ellipse 3" d="M7 22C7 30.2843 13.7157 37 22 37C30.2843 37 37 30.2843 37 22" stroke="#50D5FF" stroke-linejoin="round" stroke-dasharray="5 3"/>
<path id="Polygon 3" d="M7.99833 16.3984C7.69455 16.4756 7.39552 16.2574 7.37625 15.9446L7.19803 13.0524C7.172 12.6299 7.64987 12.3682 7.99178 12.6177L10.9786 14.7969C11.3205 15.0463 11.2172 15.5813 10.8069 15.6854L7.99833 16.3984Z" fill="#50D5FF"/>
</g>
</svg>
