<svg width="24" height="24" viewBox="0 0 24 24" fill="none" xmlns="http://www.w3.org/2000/svg">
<g id="save-02">
<path id="Icon" d="M6.6 20.4V15C6.6 14.3373 7.13726 13.8 7.8 13.8H16.2C16.8627 13.8 17.4 14.3373 17.4 15V21M17.4 3.59999V5.99999C17.4 6.66274 16.8627 7.19999 16.2 7.19999L7.8 7.19999C7.13726 7.19999 6.6 6.66273 6.6 5.99999L6.6 2.39999M20.9975 6.59747L17.4025 3.00252C17.0167 2.61673 16.4935 2.4 15.9479 2.39999H4.45714C3.321 2.39999 2.4 3.32099 2.4 4.45714V19.5429C2.4 20.679 3.321 21.6 4.45714 21.6H19.5429C20.679 21.6 21.6 20.679 21.6 19.5429V8.05208C21.6 7.50649 21.3833 6.98325 20.9975 6.59747Z" stroke="#C9CDD4" stroke-width="2" stroke-linecap="round"/>
</g>
</svg>
