<svg width="44" height="44" viewBox="0 0 44 44" fill="none" xmlns="http://www.w3.org/2000/svg">
<g id="Frame 10">
<path id="Rectangle 10" d="M13.1111 16.4445H22V32L13.1111 27.5556V16.4445Z" fill="#D1D1D1"/>
<path id="Rectangle 11" d="M22 16.4445H30.8889V27.5556L22 32V16.4445Z" fill="#848484"/>
<path id="Polygon 1" d="M22 12L30.8889 16.4444L22 20.8889L13.1111 16.4444L22 12Z" fill="#E7E7E7"/>
<path id="Vector 4" d="M15.3334 8.66669H8.66669V15.3334" stroke="#3382FF" stroke-width="2" stroke-linejoin="round"/>
<path id="Vector 8" d="M28.6666 35.3333L35.3333 35.3333L35.3333 28.6666" stroke="#3382FF" stroke-width="2" stroke-linejoin="round"/>
<path id="Vector 6" d="M28.6666 8.66669H35.3333V15.3334" stroke="#3382FF" stroke-width="2" stroke-linejoin="round"/>
<path id="Vector 9" d="M15.3334 35.3333L8.66669 35.3333L8.66669 28.6666" stroke="#3382FF" stroke-width="2" stroke-linejoin="round"/>
<path id="Vector 5" d="M8.66669 8.66669L14.2222 14.2222" stroke="#3382FF" stroke-width="2" stroke-linejoin="round"/>
<path id="Vector 10" d="M35.3333 35.3333L29.7778 29.7778" stroke="#3382FF" stroke-width="2" stroke-linejoin="round"/>
<path id="Vector 7" d="M35.3333 8.66669L29.7778 14.2222" stroke="#3382FF" stroke-width="2" stroke-linejoin="round"/>
<path id="Vector 11" d="M8.66669 35.3333L14.2222 29.7778" stroke="#3382FF" stroke-width="2" stroke-linejoin="round"/>
</g>
</svg>
