<svg width="28" height="28" viewBox="0 0 28 28" fill="none" xmlns="http://www.w3.org/2000/svg">
<g id="transform">
<path id="Vector" d="M22.2526 19.3053V8.69478M19.3052 22.2527H9.2842M5.74736 19.0106V8.98952M8.69472 5.74742H19.0105M3.97893 8.69478H7.51578C8.16689 8.69478 8.69472 8.16695 8.69472 7.51584V3.979C8.69472 3.32788 8.16689 2.80005 7.51578 2.80005H3.97894C3.32782 2.80005 2.79999 3.32788 2.79999 3.979V7.51584C2.79999 8.16695 3.32782 8.69478 3.97893 8.69478ZM20.4842 8.69478H24.021C24.6722 8.69478 25.2 8.16695 25.2 7.51584V3.979C25.2 3.32788 24.6722 2.80005 24.021 2.80005H20.4842C19.8331 2.80005 19.3052 3.32788 19.3052 3.979V7.51584C19.3052 8.16695 19.8331 8.69478 20.4842 8.69478ZM3.97893 25.2H7.51578C8.16689 25.2 8.69472 24.6722 8.69472 24.0211V20.4843C8.69472 19.8331 8.16689 19.3053 7.51578 19.3053H3.97894C3.32782 19.3053 2.79999 19.8331 2.79999 20.4843V24.0211C2.79999 24.6722 3.32782 25.2 3.97893 25.2ZM20.4842 25.2H24.021C24.6722 25.2 25.2 24.6722 25.2 24.0211V20.4843C25.2 19.8331 24.6722 19.3053 24.021 19.3053H20.4842C19.8331 19.3053 19.3052 19.8331 19.3052 20.4843V24.0211C19.3052 24.6722 19.8331 25.2 20.4842 25.2Z" stroke="#ED782F" stroke-width="2" stroke-linecap="round"/>
</g>
</svg>
