<svg width="28" height="28" viewBox="0 0 28 28" fill="none" xmlns="http://www.w3.org/2000/svg">
<g id="transform">
<path id="Vector" d="M22.2526 19.3052V8.69472M19.3052 22.2526H9.2842M5.74736 19.0105V8.98946M8.69472 5.74736H19.0105M3.97893 8.69472H7.51578C8.16689 8.69472 8.69472 8.16689 8.69472 7.51578V3.97894C8.69472 3.32782 8.16689 2.79999 7.51578 2.79999H3.97894C3.32782 2.79999 2.79999 3.32782 2.79999 3.97893V7.51578C2.79999 8.16689 3.32782 8.69472 3.97893 8.69472ZM20.4842 8.69472H24.021C24.6722 8.69472 25.2 8.16689 25.2 7.51578V3.97894C25.2 3.32782 24.6722 2.79999 24.021 2.79999H20.4842C19.8331 2.79999 19.3052 3.32782 19.3052 3.97893V7.51578C19.3052 8.16689 19.8331 8.69472 20.4842 8.69472ZM3.97893 25.2H7.51578C8.16689 25.2 8.69472 24.6722 8.69472 24.021V20.4842C8.69472 19.8331 8.16689 19.3052 7.51578 19.3052H3.97894C3.32782 19.3052 2.79999 19.8331 2.79999 20.4842V24.021C2.79999 24.6722 3.32782 25.2 3.97893 25.2ZM20.4842 25.2H24.021C24.6722 25.2 25.2 24.6722 25.2 24.021V20.4842C25.2 19.8331 24.6722 19.3052 24.021 19.3052H20.4842C19.8331 19.3052 19.3052 19.8331 19.3052 20.4842V24.021C19.3052 24.6722 19.8331 25.2 20.4842 25.2Z" stroke="#7AF3BA" stroke-width="2" stroke-linecap="round"/>
</g>
</svg>
