<svg width="44" height="44" viewBox="0 0 44 44" fill="none" xmlns="http://www.w3.org/2000/svg">
<rect width="44" height="44" rx="8" fill="#3382FF"/>
<path d="M31.4316 28.0632V15.9369M28.0632 31.4316H16.6105M12.5684 27.7263V16.2737M15.9369 12.5684H27.7263M10.5474 15.9369H14.5895C15.3336 15.9369 15.9369 15.3336 15.9369 14.5895V10.5474C15.9369 9.80325 15.3336 9.20001 14.5895 9.20001H10.5474C9.80325 9.20001 9.20001 9.80325 9.20001 10.5474V14.5895C9.20001 15.3336 9.80325 15.9369 10.5474 15.9369ZM29.4105 15.9369H33.4526C34.1968 15.9369 34.8 15.3336 34.8 14.5895V10.5474C34.8 9.80325 34.1968 9.20001 33.4526 9.20001H29.4105C28.6664 9.20001 28.0632 9.80325 28.0632 10.5474V14.5895C28.0632 15.3336 28.6664 15.9369 29.4105 15.9369ZM10.5474 34.8H14.5895C15.3336 34.8 15.9369 34.1968 15.9369 33.4526V29.4105C15.9369 28.6664 15.3336 28.0632 14.5895 28.0632H10.5474C9.80325 28.0632 9.20001 28.6664 9.20001 29.4105V33.4526C9.20001 34.1968 9.80325 34.8 10.5474 34.8ZM29.4105 34.8H33.4526C34.1968 34.8 34.8 34.1968 34.8 33.4526V29.4105C34.8 28.6664 34.1968 28.0632 33.4526 28.0632H29.4105C28.6664 28.0632 28.0632 28.6664 28.0632 29.4105V33.4526C28.0632 34.1968 28.6664 34.8 29.4105 34.8Z" stroke="#50D5FF" stroke-width="2" stroke-linecap="round"/>
</svg>
