<svg width="32" height="32" viewBox="0 0 32 32" fill="none" xmlns="http://www.w3.org/2000/svg">
<g id="transform">
<path id="Vector" d="M25.4316 22.0632V9.93685M22.0632 25.4316H10.6105M6.56843 21.7263V10.2737M9.93685 6.56843H21.7263M4.54738 9.93685H8.58949C9.33362 9.93685 9.93685 9.33362 9.93685 8.58949V4.54738C9.93685 3.80325 9.33362 3.20001 8.58949 3.20001H4.54738C3.80325 3.20001 3.20001 3.80325 3.20001 4.54738V8.58949C3.20001 9.33362 3.80325 9.93685 4.54738 9.93685ZM23.4105 9.93685H27.4526C28.1968 9.93685 28.8 9.33362 28.8 8.58949V4.54738C28.8 3.80325 28.1968 3.20001 27.4526 3.20001H23.4105C22.6664 3.20001 22.0632 3.80325 22.0632 4.54738V8.58949C22.0632 9.33362 22.6664 9.93685 23.4105 9.93685ZM4.54738 28.8H8.58949C9.33362 28.8 9.93685 28.1968 9.93685 27.4526V23.4105C9.93685 22.6664 9.33362 22.0632 8.58949 22.0632H4.54738C3.80325 22.0632 3.20001 22.6664 3.20001 23.4105V27.4526C3.20001 28.1968 3.80325 28.8 4.54738 28.8ZM23.4105 28.8H27.4526C28.1968 28.8 28.8 28.1968 28.8 27.4526V23.4105C28.8 22.6664 28.1968 22.0632 27.4526 22.0632H23.4105C22.6664 22.0632 22.0632 22.6664 22.0632 23.4105V27.4526C22.0632 28.1968 22.6664 28.8 23.4105 28.8Z" stroke="#3382FF" stroke-width="2" stroke-linecap="round"/>
</g>
</svg>
